<svg width="197" height="30" viewBox="0 0 197 30" fill="none" xmlns="http://www.w3.org/2000/svg">
<path d="M16.2363 22.552H13.3563L14.1003 18.28H2.38825V15.928H14.1003V4.384H16.9563V18.28L16.2363 22.552ZM8.14825 4.48L12.0843 13.48H8.91625L6.54025 7.864L4.18825 13.48H1.02025L4.95625 4.48H8.14825ZM44.4824 4.48H52.0424V10.768H53.6744V4.384H56.3384V22.552H53.6744V13.312H52.0424V22.456H44.4824V4.48ZM60.3944 22.552H57.7064V4.384H60.3944V22.552ZM47.1464 19.816H49.3784V7.144H47.1464V19.816ZM97.0405 7.456H88.3045V5.248H94.0405V3.736H97.0165V5.248H102.657V7.36L97.8805 9.664L102.825 11.68V14.392L95.0485 11.008L88.3045 14.272V11.56L97.0405 7.456ZM103.785 15.424V17.824H96.8485V22.552H94.2085V17.824H87.2725V15.424H103.785Z" fill="#1755DA"/>
<path d="M27.6501 22.456L25.0341 10.648L22.4181 22.456H19.6101L23.7381 4.48H26.3061L30.4581 22.456H27.6501ZM34.8501 10.144H36.8181V12.76H34.8501V22.552H32.2101V4.384H34.8501V10.144ZM79.1283 15.208V17.776H75.4803V22.552H72.7923V17.776H68.9523V22.552H66.2643V17.776H62.6163V15.208H79.1283ZM66.6243 10.624H77.9283V13.336H63.8163V4.384H66.6243V10.624ZM109.678 20.152H118.822V10.72H116.734V8.128H118.822V4.384H121.534V22.552H106.99V16.528H109.678V20.152ZM112.606 5.296H115.99V7.672L113.182 9.76L116.086 11.968V14.944L111.094 11.296L106.174 14.944V11.968L111.91 7.672H106.174V5.296H109.678V3.736H112.606V5.296ZM129.012 8.656C129.492 8.656 129.94 8.752 130.356 8.944C130.788 9.136 131.164 9.4 131.484 9.736C131.804 10.072 132.052 10.464 132.228 10.912C132.42 11.36 132.516 11.84 132.516 12.352V18.784C132.516 19.296 132.42 19.776 132.228 20.224C132.052 20.672 131.804 21.064 131.484 21.4C131.164 21.72 130.788 21.976 130.356 22.168C129.94 22.36 129.492 22.456 129.012 22.456H127.908C127.412 22.456 126.948 22.36 126.516 22.168C126.1 21.976 125.732 21.72 125.412 21.4C125.092 21.064 124.844 20.672 124.668 20.224C124.492 19.776 124.404 19.296 124.404 18.784V12.352C124.404 11.84 124.492 11.36 124.668 10.912C124.844 10.464 125.092 10.072 125.412 9.736C125.732 9.4 126.1 9.136 126.516 8.944C126.948 8.752 127.412 8.656 127.908 8.656H129.012ZM133.932 22.552V4.384H136.452V11.68H137.892V4.384H140.412V22.552H137.892V14.272H136.452V22.552H133.932ZM130.068 12.736C130.068 12.224 129.908 11.824 129.588 11.536C129.284 11.232 128.908 11.08 128.46 11.08C128.012 11.08 127.628 11.232 127.308 11.536C127.004 11.824 126.852 12.224 126.852 12.736V18.376C126.852 18.904 127.004 19.32 127.308 19.624C127.628 19.912 128.012 20.056 128.46 20.056C128.908 20.056 129.284 19.912 129.588 19.624C129.908 19.32 130.068 18.904 130.068 18.376V12.736ZM129.828 5.344H132.948V7.72H123.972V5.344H127.14V3.736H129.828V5.344ZM159.05 20.032V22.552H142.538V20.032H159.05ZM157.682 4.48V6.904H146.81V15.184H157.682V17.824H143.882V4.48H157.682ZM170.44 4.384V14.848H164.44V19.744H170.656V22.36H161.632V11.992H167.632V7.096H161.632V4.384H170.44ZM174.16 8.488V4.384H176.8V22.552H174.16V16.984H171.616V14.368H174.16V11.104H171.616V8.488H174.16ZM182.982 19.984V14.68C182.534 14.568 182.118 14.384 181.734 14.128C181.35 13.872 181.014 13.568 180.726 13.216C180.454 12.848 180.238 12.448 180.078 12.016C179.934 11.568 179.862 11.104 179.862 10.624V8.656C179.862 8.08 179.966 7.536 180.174 7.024C180.398 6.512 180.702 6.072 181.086 5.704C181.47 5.32 181.918 5.024 182.43 4.816C182.942 4.592 183.486 4.48 184.062 4.48H191.214C191.79 4.48 192.326 4.592 192.822 4.816C193.334 5.024 193.782 5.32 194.166 5.704C194.55 6.072 194.846 6.512 195.054 7.024C195.278 7.536 195.39 8.08 195.39 8.656V10.624C195.39 11.104 195.31 11.56 195.15 11.992C195.006 12.424 194.798 12.816 194.526 13.168C194.254 13.52 193.926 13.824 193.542 14.08C193.174 14.336 192.774 14.528 192.342 14.656V19.984H195.894V22.552H179.382V19.984H182.982ZM190.854 12.232C191.43 12.232 191.886 12.032 192.222 11.632C192.558 11.216 192.726 10.72 192.726 10.144V9.136C192.726 8.56 192.558 8.072 192.222 7.672C191.886 7.272 191.43 7.072 190.854 7.072H184.422C183.846 7.072 183.39 7.272 183.054 7.672C182.718 8.072 182.55 8.56 182.55 9.136V10.144C182.55 10.432 182.59 10.704 182.67 10.96C182.766 11.2 182.894 11.416 183.054 11.608C183.214 11.8 183.406 11.952 183.63 12.064C183.87 12.176 184.134 12.232 184.422 12.232H190.854ZM185.79 19.984H189.534V14.824H185.79V19.984Z" fill="black"/>
</svg>
